{
  "accessors": [
    {
      "bufferView": 2,
      "componentType": 5126,
      "count": 13751,
      "max": [
        1.051688313484192,
        1.0576006174087524,
        1.0517174005508423
      ],
      "min": [
        -1.051688313484192,
        -1.0576006174087524,
        -1.0517829656600952
      ],
      "type": "VEC3"
    },
    {
      "bufferView": 2,
      "byteOffset": 165012,
      "componentType": 5126,
      "count": 13751,
      "max": [
        0.999988853931427,
        1.0,
        0.9999898076057434
      ],
      "min": [
        -0.9999889135360718,
        -1.0,
        -0.9999908804893494
      ],
      "type": "VEC3"
    },
    {
      "bufferView": 1,
      "componentType": 5126,
      "count": 13751,
      "max": [
        0.8609206676483154,
        1.0
      ],
      "min": [
        0.13908042013645172,
        0.0
      ],
      "type": "VEC2"
    },
    {
      "bufferView": 0,
      "componentType": 5125,
      "count": 79866,
      "type": "SCALAR"
    },
    {
      "bufferView": 2,
      "byteOffset": 330024,
      "componentType": 5126,
      "count": 10750,
      "max": [
        0.7962470054626465,
        0.857711136341095,
        0.795859694480896
      ],
      "min": [
        -0.7961139678955078,
        -0.8532271385192871,
        -0.7905816435813904
      ],
      "type": "VEC3"
    },
    {
      "bufferView": 2,
      "byteOffset": 459024,
      "componentType": 5126,
      "count": 10750,
      "max": [
        0.9595515131950378,
        0.9944575428962708,
        0.922739565372467
      ],
      "min": [
        -0.9585639238357544,
        -0.9693342447280884,
        -0.9207085371017456
      ],
      "type": "VEC3"
    },
    {
      "bufferView": 1,
      "byteOffset": 110008,
      "componentType": 5126,
      "count": 10750,
      "max": [
        0.875,
        1.0
      ],
      "min": [
        0.125,
        0.0
      ],
      "type": "VEC2"
    },
    {
      "bufferView": 0,
      "byteOffset": 319464,
      "componentType": 5125,
      "count": 61446,
      "type": "SCALAR"
    }
  ],
  "asset": {
    "extras": {
      "author": "ingscappatura (https://sketchfab.com/ingscappatura)",
      "license": "CC-BY-NC-4.0 (http://creativecommons.org/licenses/by-nc/4.0/)",
      "source": "https://sketchfab.com/3d-models/tennis-ball-15bd6087617a4a379953550c56edb839",
      "title": "Tennis ball"
    },
    "generator": "Sketchfab-12.66.0",
    "version": "2.0"
  },
  "bufferViews": [
    {
      "buffer": 0,
      "byteLength": 565248,
      "name": "floatBufferViews",
      "target": 34963
    },
    {
      "buffer": 0,
      "byteLength": 196008,
      "byteOffset": 565248,
      "byteStride": 8,
      "name": "floatBufferViews",
      "target": 34962
    },
    {
      "buffer": 0,
      "byteLength": 588024,
      "byteOffset": 761256,
      "byteStride": 12,
      "name": "floatBufferViews",
      "target": 34962
    }
  ],
  "buffers": [
    {
      "byteLength": 1349280,
      "uri": "scene.bin"
    }
  ],
  "materials": [
    {
      "doubleSided": true,
      "name": "Paint_Matte_Yellow",
      "pbrMetallicRoughness": {
        "baseColorFactor": [
          0.885813,
          0.968874,
          0.00961169,
          1.0
        ],
        "metallicFactor": 0.0,
        "roughnessFactor": 0.9577051494623774
      }
    },
    {
      "doubleSided": true,
      "name": "Paint_Matte_White",
      "pbrMetallicRoughness": {
        "metallicFactor": 0.0,
        "roughnessFactor": 0.9577051494623774
      }
    }
  ],
  "meshes": [
    {
      "name": "pCube1_Paint Matte Yellow_0",
      "primitives": [
        {
          "attributes": {
            "NORMAL": 1,
            "POSITION": 0,
            "TEXCOORD_0": 2
          },
          "indices": 3,
          "material": 0,
          "mode": 4
        }
      ]
    },
    {
      "name": "pCube1_Paint Matte White_0",
      "primitives": [
        {
          "attributes": {
            "NORMAL": 5,
            "POSITION": 4,
            "TEXCOORD_0": 6
          },
          "indices": 7,
          "material": 1,
          "mode": 4
        }
      ]
    }
  ],
  "nodes": [
    {
      "children": [
        1
      ],
      "matrix": [
        1.0,
        0.0,
        0.0,
        0.0,
        0.0,
        2.220446049250313e-16,
        -1.0,
        0.0,
        0.0,
        1.0,
        2.220446049250313e-16,
        0.0,
        0.0,
        0.0,
        0.0,
        1.0
      ],
      "name": "Sketchfab_model"
    },
    {
      "children": [
        2
      ],
      "matrix": [
        1.0,
        0.0,
        0.0,
        0.0,
        0.0,
        0.0,
        1.0,
        0.0,
        0.0,
        -1.0,
        0.0,
        0.0,
        0.0,
        0.0,
        0.0,
        1.0
      ],
      "name": "a1061c56f8be43349d958fd707254c72.fbx"
    },
    {
      "children": [
        3
      ],
      "name": "RootNode"
    },
    {
      "children": [
        4
      ],
      "name": "Default"
    },
    {
      "children": [
        5
      ],
      "matrix": [
        1.0,
        0.0,
        0.0,
        0.0,
        0.0,
        1.0,
        0.0,
        0.0,
        0.0,
        0.0,
        1.0,
        0.0,
        0.0,
        1.0576006174087524,
        3.2782554626464844e-05,
        1.0
      ],
      "name": "TennisBall"
    },
    {
      "children": [
        6
      ],
      "name": "RootNode"
    },
    {
      "children": [
        7
      ],
      "name": "pCube1"
    },
    {
      "children": [
        8,
        10
      ],
      "name": "pCube1"
    },
    {
      "children": [
        9
      ],
      "name": "pCube1"
    },
    {
      "mesh": 0,
      "name": "pCube1_Paint Matte Yellow_0"
    },
    {
      "children": [
        11
      ],
      "name": "pCube1"
    },
    {
      "mesh": 1,
      "name": "pCube1_Paint Matte White_0"
    }
  ],
  "scene": 0,
  "scenes": [
    {
      "name": "Sketchfab_Scene",
      "nodes": [
        0
      ]
    }
  ]
}
