{
  "accessors": [
    {
      "bufferView": 2,
      "componentType": 5126,
      "count": 742,
      "max": [
        0.9877912402153015,
        0.1723085194826126,
        1.949341058731079
      ],
      "min": [
        -0.9877912998199463,
        0.0043678320944309235,
        -1.1279399394989014
      ],
      "type": "VEC3"
    },
    {
      "bufferView": 2,
      "byteOffset": 8904,
      "componentType": 5126,
      "count": 742,
      "max": [
        1.0,
        0.9999986886978149,
        0.9997433423995972
      ],
      "min": [
        -1.0,
        -0.9999986290931702,
        -0.9927055239677429
      ],
      "type": "VEC3"
    },
    {
      "bufferView": 1,
      "componentType": 5126,
      "count": 742,
      "max": [
        0.0,
        0.0
      ],
      "min": [
        0.0,
        0.0
      ],
      "type": "VEC2"
    },
    {
      "bufferView": 0,
      "componentType": 5125,
      "count": 4272,
      "type": "SCALAR"
    },
    {
      "bufferView": 2,
      "byteOffset": 17808,
      "componentType": 5126,
      "count": 2131,
      "max": [
        1.2623186111450195,
        1.1712617874145508,
        13.917757034301758
      ],
      "min": [
        -1.2623186111450195,
        -1.1936655044555664,
        -1.1368162631988525
      ],
      "type": "VEC3"
    },
    {
      "bufferView": 2,
      "byteOffset": 43380,
      "componentType": 5126,
      "count": 2131,
      "max": [
        1.0,
        1.0,
        0.9999967217445374
      ],
      "min": [
        -0.999994158744812,
        -1.0,
        -0.9999976754188538
      ],
      "type": "VEC3"
    },
    {
      "bufferView": 1,
      "byteOffset": 5936,
      "componentType": 5126,
      "count": 2131,
      "max": [
        0.8750001192092896,
        0.9925335645675659
      ],
      "min": [
        0.125,
        0.0
      ],
      "type": "VEC2"
    },
    {
      "bufferView": 0,
      "byteOffset": 17088,
      "componentType": 5125,
      "count": 8640,
      "type": "SCALAR"
    },
    {
      "bufferView": 2,
      "byteOffset": 68952,
      "componentType": 5126,
      "count": 770,
      "max": [
        0.9956616163253784,
        0.0,
        0.9403963088989258
      ],
      "min": [
        -0.9956616163253784,
        -0.04399999976158142,
        -0.9403963685035706
      ],
      "type": "VEC3"
    },
    {
      "bufferView": 2,
      "byteOffset": 78192,
      "componentType": 5126,
      "count": 770,
      "max": [
        0.8997762799263,
        1.0,
        0.9801813960075378
      ],
      "min": [
        -0.9598795771598816,
        -1.0,
        -0.9928076863288879
      ],
      "type": "VEC3"
    },
    {
      "bufferView": 1,
      "byteOffset": 22984,
      "componentType": 5126,
      "count": 770,
      "max": [
        1.0,
        1.0
      ],
      "min": [
        0.0,
        0.0
      ],
      "type": "VEC2"
    },
    {
      "bufferView": 0,
      "byteOffset": 51648,
      "componentType": 5125,
      "count": 5760,
      "type": "SCALAR"
    }
  ],
  "asset": {
    "extras": {
      "author": "ElOsitoAzul (https://sketchfab.com/ElOsitoAzul)",
      "license": "CC-BY-4.0 (http://creativecommons.org/licenses/by/4.0/)",
      "source": "https://sketchfab.com/3d-models/racket-raquet-raqueta-de-tennis-154f473fa4ad4a38aa874e4d28fa9c14",
      "title": "Racket / Raquet / Raqueta de tennis"
    },
    "generator": "Sketchfab-13.83.0",
    "version": "2.0"
  },
  "bufferViews": [
    {
      "buffer": 0,
      "byteLength": 74688,
      "name": "floatBufferViews",
      "target": 34963
    },
    {
      "buffer": 0,
      "byteLength": 29144,
      "byteOffset": 74688,
      "byteStride": 8,
      "name": "floatBufferViews",
      "target": 34962
    },
    {
      "buffer": 0,
      "byteLength": 87432,
      "byteOffset": 103832,
      "byteStride": 12,
      "name": "floatBufferViews",
      "target": 34962
    }
  ],
  "buffers": [
    {
      "byteLength": 191264,
      "uri": "scene.bin"
    }
  ],
  "materials": [
    {
      "doubleSided": true,
      "name": "Material.001",
      "pbrMetallicRoughness": {
        "baseColorFactor": [
          0.7426469032498019,
          0.18035358690305225,
          0.32191554240389597,
          1.0
        ],
        "metallicFactor": 0.27834731661018597,
        "roughnessFactor": 0.2357586561452395
      }
    },
    {
      "doubleSided": true,
      "name": "Material.003",
      "pbrMetallicRoughness": {
        "baseColorFactor": [
          0.1099511206360935,
          0.3571836597392476,
          0.4933703798404019,
          1.0
        ],
        "metallicFactor": 0.0,
        "roughnessFactor": 0.7833271478374086
      }
    },
    {
      "doubleSided": true,
      "name": "Material",
      "pbrMetallicRoughness": {
        "baseColorFactor": [
          0.7856622151555305,
          0.3335374495041525,
          0.4734861033344407,
          1.0
        ],
        "metallicFactor": 0.21750637308883386,
        "roughnessFactor": 0.25401093920164514
      }
    }
  ],
  "meshes": [
    {
      "name": "Object_0",
      "primitives": [
        {
          "attributes": {
            "NORMAL": 1,
            "POSITION": 0,
            "TEXCOORD_0": 2
          },
          "indices": 3,
          "material": 0,
          "mode": 4
        }
      ]
    },
    {
      "name": "Object_1",
      "primitives": [
        {
          "attributes": {
            "NORMAL": 5,
            "POSITION": 4,
            "TEXCOORD_0": 6
          },
          "indices": 7,
          "material": 1,
          "mode": 4
        }
      ]
    },
    {
      "name": "Object_2",
      "primitives": [
        {
          "attributes": {
            "NORMAL": 9,
            "POSITION": 8,
            "TEXCOORD_0": 10
          },
          "indices": 11,
          "material": 2,
          "mode": 4
        }
      ]
    }
  ],
  "nodes": [
    {
      "children": [
        1
      ],
      "matrix": [
        1.0,
        0.0,
        0.0,
        0.0,
        0.0,
        2.220446049250313e-16,
        -1.0,
        0.0,
        0.0,
        1.0,
        2.220446049250313e-16,
        0.0,
        0.0,
        0.0,
        0.0,
        1.0
      ],
      "name": "Sketchfab_model"
    },
    {
      "children": [
        2
      ],
      "name": "root"
    },
    {
      "children": [
        3,
        5,
        7
      ],
      "matrix": [
        1.0,
        0.0,
        0.0,
        0.0,
        0.0,
        2.220446049250313e-16,
        1.0,
        0.0,
        0.0,
        -1.0,
        2.220446049250313e-16,
        0.0,
        0.0,
        0.0,
        0.0,
        1.0
      ],
      "name": "GLTF_SceneRootNode"
    },
    {
      "children": [
        4
      ],
      "matrix": [
        0.98223771518853,
        -0.1868143918801486,
        0.017591300340409073,
        0.0,
        0.13900445416835566,
        0.787411885820511,
        0.6005499844225658,
        0.0,
        -0.12604297910861084,
        -0.587437575453798,
        0.7993936842147238,
        0.0,
        -0.03152879327535629,
        0.3785213232040405,
        0.19747871160507202,
        1.0
      ],
      "name": "Circle_2"
    },
    {
      "mesh": 0,
      "name": "Object_4"
    },
    {
      "children": [
        6
      ],
      "matrix": [
        0.09508929706742393,
        -0.018085285192446492,
        0.0017029934383555702,
        0.0,
        0.013456860423622466,
        0.0762284338784891,
        0.05813854934457827,
        0.0,
        -0.012202075015436917,
        -0.05686915219924325,
        0.07738837792186214,
        0.0,
        -0.25700312852859497,
        -0.6596052646636963,
        1.7625906467437744,
        1.0
      ],
      "name": "Cube_3"
    },
    {
      "mesh": 1,
      "name": "Object_6"
    },
    {
      "children": [
        8
      ],
      "matrix": [
        0.9199658635523084,
        -0.17497074353027975,
        0.01647604806700608,
        0.0,
        0.13019185757091756,
        0.7374915911991619,
        0.562476350156833,
        0.0,
        -0.1428590161436048,
        -0.6658106200647634,
        0.9060448748987491,
        0.0,
        -0.015885360538959503,
        0.4671359062194824,
        0.2650641202926636,
        1.0
      ],
      "name": "Plane_4"
    },
    {
      "mesh": 2,
      "name": "Object_8"
    }
  ],
  "scene": 0,
  "scenes": [
    {
      "name": "Sketchfab_Scene",
      "nodes": [
        0
      ]
    }
  ]
}
