{
  "accessors": [
    {
      "bufferView": 2,
      "componentType": 5126,
      "count": 1304,
      "max": [
        0.19830800592899323,
        0.016385000199079514,
        0.11372599750757217
      ],
      "min": [
        0.01614299975335598,
        -0.07443299889564514,
        0.04854299873113632
      ],
      "type": "VEC3"
    },
    {
      "bufferView": 2,
      "byteOffset": 15648,
      "componentType": 5126,
      "count": 1304,
      "max": [
        0.9965980052947998,
        0.9997697472572327,
        0.999909520149231
      ],
      "min": [
        -0.9994593858718872,
        -0.9998922348022461,
        -0.9998742341995239
      ],
      "type": "VEC3"
    },
    {
      "bufferView": 3,
      "componentType": 5126,
      "count": 1304,
      "max": [
        0.999998927116394,
        0.9999927878379822,
        1.0,
        1.0
      ],
      "min": [
        -0.9999986886978149,
        -0.9999102354049683,
        -0.9999976754188538,
        -1.0
      ],
      "type": "VEC4"
    },
    {
      "bufferView": 1,
      "componentType": 5126,
      "count": 1304,
      "max": [
        0.65625,
        1.0
      ],
      "min": [
        0.34375,
        0.0
      ],
      "type": "VEC2"
    },
    {
      "bufferView": 0,
      "componentType": 5125,
      "count": 7632,
      "type": "SCALAR"
    },
    {
      "bufferView": 2,
      "byteOffset": 31296,
      "componentType": 5126,
      "count": 6359,
      "max": [
        0.17206600308418274,
        0.13752000033855438,
        0.12364599853754044
      ],
      "min": [
        0.0570949986577034,
        -0.1498119980096817,
        0.0079950001090765
      ],
      "type": "VEC3"
    },
    {
      "bufferView": 2,
      "byteOffset": 107604,
      "componentType": 5126,
      "count": 6359,
      "max": [
        0.9998401403427124,
        0.9983907341957092,
        0.9999992251396179
      ],
      "min": [
        -0.9998401403427124,
        -0.9981592297554016,
        -0.9999856352806091
      ],
      "type": "VEC3"
    },
    {
      "bufferView": 3,
      "byteOffset": 20864,
      "componentType": 5126,
      "count": 6359,
      "max": [
        0.9999936819076538,
        0.9999592900276184,
        0.9999832510948181,
        1.0
      ],
      "min": [
        -1.0,
        -0.9998795986175537,
        -0.9997785687446594,
        -1.0
      ],
      "type": "VEC4"
    },
    {
      "bufferView": 1,
      "byteOffset": 10432,
      "componentType": 5126,
      "count": 6359,
      "max": [
        1.0,
        1.0
      ],
      "min": [
        0.0,
        0.0
      ],
      "type": "VEC2"
    },
    {
      "bufferView": 0,
      "byteOffset": 30528,
      "componentType": 5125,
      "count": 28404,
      "type": "SCALAR"
    },
    {
      "bufferView": 2,
      "byteOffset": 183912,
      "componentType": 5126,
      "count": 3270,
      "max": [
        0.0711119994521141,
        0.05938100069761276,
        0.0756170004606247
      ],
      "min": [
        0.057360999286174774,
        -0.008701000362634659,
        0.040196001529693604
      ],
      "type": "VEC3"
    },
    {
      "bufferView": 2,
      "byteOffset": 223152,
      "componentType": 5126,
      "count": 3270,
      "max": [
        0.9787953495979309,
        0.9999924898147583,
        0.9999663829803467
      ],
      "min": [
        -0.9788053631782532,
        -0.9990451335906982,
        -0.9999088644981384
      ],
      "type": "VEC3"
    },
    {
      "bufferView": 1,
      "byteOffset": 61304,
      "componentType": 5126,
      "count": 3270,
      "max": [
        1.0,
        1.0
      ],
      "min": [
        0.0,
        0.0
      ],
      "type": "VEC2"
    },
    {
      "bufferView": 0,
      "byteOffset": 144144,
      "componentType": 5125,
      "count": 15972,
      "type": "SCALAR"
    },
    {
      "bufferView": 2,
      "byteOffset": 262392,
      "componentType": 5126,
      "count": 1767,
      "max": [
        0.17327700555324554,
        0.13716599345207214,
        0.03901499882340431
      ],
      "min": [
        0.06575100123882294,
        -0.1511240005493164,
        0.005291000008583069
      ],
      "type": "VEC3"
    },
    {
      "bufferView": 2,
      "byteOffset": 283596,
      "componentType": 5126,
      "count": 1767,
      "max": [
        0.9993079900741577,
        0.996281623840332,
        0.9999421238899231
      ],
      "min": [
        -0.9996046423912048,
        -0.998390257358551,
        -0.9999992251396179
      ],
      "type": "VEC3"
    },
    {
      "bufferView": 1,
      "byteOffset": 87464,
      "componentType": 5126,
      "count": 1767,
      "max": [
        1.0,
        1.0
      ],
      "min": [
        0.0,
        0.0
      ],
      "type": "VEC2"
    },
    {
      "bufferView": 0,
      "byteOffset": 208032,
      "componentType": 5125,
      "count": 8136,
      "type": "SCALAR"
    },
    {
      "bufferView": 2,
      "byteOffset": 304800,
      "componentType": 5126,
      "count": 416,
      "max": [
        0.16626399755477905,
        -0.07955600321292877,
        0.06582599878311157
      ],
      "min": [
        0.06734000146389008,
        -0.15020599961280823,
        0.028944000601768494
      ],
      "type": "VEC3"
    },
    {
      "bufferView": 2,
      "byteOffset": 309792,
      "componentType": 5126,
      "count": 416,
      "max": [
        0.9170929789543152,
        -0.05245799943804741,
        0.9986010193824768
      ],
      "min": [
        -0.9802356362342834,
        -0.9371730089187622,
        -0.5804501175880432
      ],
      "type": "VEC3"
    },
    {
      "bufferView": 1,
      "byteOffset": 101600,
      "componentType": 5126,
      "count": 416,
      "max": [
        1.0,
        1.0
      ],
      "min": [
        0.0,
        0.0
      ],
      "type": "VEC2"
    },
    {
      "bufferView": 0,
      "byteOffset": 240576,
      "componentType": 5125,
      "count": 1428,
      "type": "SCALAR"
    }
  ],
  "asset": {
    "extras": {
      "author": "ElPinguinoCoyosaurio (https://sketchfab.com/elcoyotesd)",
      "license": "CC-BY-4.0 (http://creativecommons.org/licenses/by/4.0/)",
      "source": "https://sketchfab.com/3d-models/tenis-nike-00089a40101d4c1487edf050b94f6008",
      "title": "Tenis Nike"
    },
    "generator": "Sketchfab-12.68.0",
    "version": "2.0"
  },
  "bufferViews": [
    {
      "buffer": 0,
      "byteLength": 246288,
      "name": "floatBufferViews",
      "target": 34963
    },
    {
      "buffer": 0,
      "byteLength": 104928,
      "byteOffset": 246288,
      "byteStride": 8,
      "name": "floatBufferViews",
      "target": 34962
    },
    {
      "buffer": 0,
      "byteLength": 314784,
      "byteOffset": 351216,
      "byteStride": 12,
      "name": "floatBufferViews",
      "target": 34962
    },
    {
      "buffer": 0,
      "byteLength": 122608,
      "byteOffset": 666000,
      "byteStride": 16,
      "name": "floatBufferViews",
      "target": 34962
    }
  ],
  "buffers": [
    {
      "byteLength": 788608,
      "uri": "scene.bin"
    }
  ],
  "images": [
    {
      "uri": "textures/initialShadingGroup_normal.png"
    }
  ],
  "materials": [
    {
      "doubleSided": true,
      "name": "initialShadingGroup",
      "normalTexture": {
        "index": 0
      },
      "pbrMetallicRoughness": {
        "baseColorFactor": [
          0.8928293248917687,
          0.07062219695751826,
          0.07062219695751826,
          1.0
        ],
        "metallicFactor": 0.0,
        "roughnessFactor": 0.6
      }
    },
    {
      "doubleSided": true,
      "name": "lambert4SG",
      "pbrMetallicRoughness": {
        "baseColorFactor": [
          0.0,
          0.0,
          0.0,
          1.0
        ],
        "metallicFactor": 0.0,
        "roughnessFactor": 0.8044160882
      }
    },
    {
      "doubleSided": true,
      "name": "lambert5SG",
      "normalTexture": {
        "index": 0
      },
      "pbrMetallicRoughness": {
        "baseColorFactor": [
          0.6592412686,
          0.4845911656,
          0.4845911656,
          1.0
        ],
        "metallicFactor": 0.0,
        "roughnessFactor": 0.6
      }
    },
    {
      "doubleSided": true,
      "name": "lambert6SG",
      "pbrMetallicRoughness": {
        "baseColorFactor": [
          0.005097615027984815,
          0.005097615027984815,
          0.005097615027984815,
          1.0
        ],
        "metallicFactor": 0.0,
        "roughnessFactor": 0.3937563571625998
      }
    },
    {
      "doubleSided": true,
      "name": "lambert7SG",
      "pbrMetallicRoughness": {
        "baseColorFactor": [
          0.5399202322377528,
          0.5399202322377528,
          0.5399202322377528,
          1.0
        ],
        "metallicFactor": 0.0,
        "roughnessFactor": 0.6
      }
    }
  ],
  "meshes": [
    {
      "name": "Object_0",
      "primitives": [
        {
          "attributes": {
            "NORMAL": 1,
            "POSITION": 0,
            "TANGENT": 2,
            "TEXCOORD_0": 3
          },
          "indices": 4,
          "material": 2,
          "mode": 4
        }
      ]
    },
    {
      "name": "Object_1",
      "primitives": [
        {
          "attributes": {
            "NORMAL": 6,
            "POSITION": 5,
            "TANGENT": 7,
            "TEXCOORD_0": 8
          },
          "indices": 9,
          "material": 0,
          "mode": 4
        }
      ]
    },
    {
      "name": "Object_2",
      "primitives": [
        {
          "attributes": {
            "NORMAL": 11,
            "POSITION": 10,
            "TEXCOORD_0": 12
          },
          "indices": 13,
          "material": 1,
          "mode": 4
        }
      ]
    },
    {
      "name": "Object_3",
      "primitives": [
        {
          "attributes": {
            "NORMAL": 15,
            "POSITION": 14,
            "TEXCOORD_0": 16
          },
          "indices": 17,
          "material": 3,
          "mode": 4
        }
      ]
    },
    {
      "name": "Object_4",
      "primitives": [
        {
          "attributes": {
            "NORMAL": 19,
            "POSITION": 18,
            "TEXCOORD_0": 20
          },
          "indices": 21,
          "material": 4,
          "mode": 4
        }
      ]
    }
  ],
  "nodes": [
    {
      "children": [
        1
      ],
      "matrix": [
        1.0,
        -1.608122622957729e-16,
        -1.6081226229577294e-16,
        0.0,
        -1.6081226229577292e-16,
        3.828568672208042e-16,
        -1.0,
        0.0,
        1.6081226229577292e-16,
        1.0,
        3.828568672208042e-16,
        0.0,
        -1.3877787807814457e-17,
        1.3877787807814455e-17,
        6.938893903907231e-18,
        1.0
      ],
      "name": "Sketchfab_model"
    },
    {
      "children": [
        2,
        3,
        4,
        5,
        6
      ],
      "name": "Tenis.obj.cleaner.materialmerger.gles"
    },
    {
      "mesh": 0,
      "name": "Object_2"
    },
    {
      "mesh": 1,
      "name": "Object_3"
    },
    {
      "mesh": 2,
      "name": "Object_4"
    },
    {
      "mesh": 3,
      "name": "Object_5"
    },
    {
      "mesh": 4,
      "name": "Object_6"
    }
  ],
  "samplers": [
    {
      "magFilter": 9729,
      "minFilter": 9987,
      "wrapS": 10497,
      "wrapT": 10497
    }
  ],
  "scene": 0,
  "scenes": [
    {
      "name": "Sketchfab_Scene",
      "nodes": [
        0
      ]
    }
  ],
  "textures": [
    {
      "sampler": 0,
      "source": 0
    }
  ]
}
