{
  "accessors": [
    {
      "bufferView": 2,
      "componentType": 5126,
      "count": 12618,
      "max": [
        1.2160778045654297,
        1.2194894552230835,
        1.2160860300064087
      ],
      "min": [
        -1.2160778045654297,
        -1.219489574432373,
        -1.2160860300064087
      ],
      "type": "VEC3"
    },
    {
      "bufferView": 2,
      "byteOffset": 151416,
      "componentType": 5126,
      "count": 12618,
      "max": [
        0.9997105598449707,
        1.0,
        0.9997121691703796
      ],
      "min": [
        -0.9997105598449707,
        -1.0,
        -0.9997121691703796
      ],
      "type": "VEC3"
    },
    {
      "bufferView": 1,
      "componentType": 5126,
      "count": 12618,
      "max": [
        1.25,
        1.0
      ],
      "min": [
        0.1289951503276825,
        0.28161299228668213
      ],
      "type": "VEC2"
    },
    {
      "bufferView": 0,
      "componentType": 5125,
      "count": 73728,
      "type": "SCALAR"
    },
    {
      "bufferView": 2,
      "byteOffset": 302832,
      "componentType": 5126,
      "count": 8529,
      "max": [
        0.9001007676124573,
        0.9944310784339905,
        0.9003281593322754
      ],
      "min": [
        -0.9001007676124573,
        -0.9944512844085693,
        -0.9003281593322754
      ],
      "type": "VEC3"
    },
    {
      "bufferView": 2,
      "byteOffset": 405180,
      "componentType": 5126,
      "count": 8529,
      "max": [
        0.9990487098693848,
        0.9997900724411011,
        0.9991027116775513
      ],
      "min": [
        -0.9990487098693848,
        -0.9998081922531128,
        -0.9991027116775513
      ],
      "type": "VEC3"
    },
    {
      "bufferView": 1,
      "byteOffset": 100944,
      "componentType": 5126,
      "count": 8529,
      "max": [
        1.1599137783050537,
        0.7447671890258789
      ],
      "min": [
        0.125,
        0.2809254229068756
      ],
      "type": "VEC2"
    },
    {
      "bufferView": 0,
      "byteOffset": 294912,
      "componentType": 5125,
      "count": 49152,
      "type": "SCALAR"
    }
  ],
  "asset": {
    "extras": {
      "author": "Cxrly97 (https://sketchfab.com/Cxrly97)",
      "license": "CC-BY-4.0 (http://creativecommons.org/licenses/by/4.0/)",
      "source": "https://sketchfab.com/3d-models/tennis-ball-fad641f2a73e4924b8118acfe1bde2a7",
      "title": "Tennis Ball"
    },
    "generator": "Sketchfab-12.68.0",
    "version": "2.0"
  },
  "bufferViews": [
    {
      "buffer": 0,
      "byteLength": 491520,
      "name": "floatBufferViews",
      "target": 34963
    },
    {
      "buffer": 0,
      "byteLength": 169176,
      "byteOffset": 491520,
      "byteStride": 8,
      "name": "floatBufferViews",
      "target": 34962
    },
    {
      "buffer": 0,
      "byteLength": 507528,
      "byteOffset": 660696,
      "byteStride": 12,
      "name": "floatBufferViews",
      "target": 34962
    }
  ],
  "buffers": [
    {
      "byteLength": 1168224,
      "uri": "scene.bin"
    }
  ],
  "materials": [
    {
      "doubleSided": true,
      "name": "lambert1",
      "pbrMetallicRoughness": {
        "baseColorFactor": [
          0.401975,
          0.72307,
          0.00802302,
          1.0
        ],
        "metallicFactor": 0.0,
        "roughnessFactor": 0.6
      }
    },
    {
      "doubleSided": true,
      "name": "lambert3",
      "pbrMetallicRoughness": {
        "metallicFactor": 0.0,
        "roughnessFactor": 0.6
      }
    }
  ],
  "meshes": [
    {
      "name": "pPlatonic1_lambert1_0",
      "primitives": [
        {
          "attributes": {
            "NORMAL": 1,
            "POSITION": 0,
            "TEXCOORD_0": 2
          },
          "indices": 3,
          "material": 0,
          "mode": 4
        }
      ]
    },
    {
      "name": "pPlatonic1_lambert3_0",
      "primitives": [
        {
          "attributes": {
            "NORMAL": 5,
            "POSITION": 4,
            "TEXCOORD_0": 6
          },
          "indices": 7,
          "material": 1,
          "mode": 4
        }
      ]
    }
  ],
  "nodes": [
    {
      "children": [
        1
      ],
      "matrix": [
        1.0,
        0.0,
        0.0,
        0.0,
        0.0,
        2.220446049250313e-16,
        -1.0,
        0.0,
        0.0,
        1.0,
        2.220446049250313e-16,
        0.0,
        0.0,
        0.0,
        0.0,
        1.0
      ],
      "name": "Sketchfab_model"
    },
    {
      "children": [
        2
      ],
      "matrix": [
        1.0,
        0.0,
        0.0,
        0.0,
        0.0,
        0.0,
        1.0,
        0.0,
        0.0,
        -1.0,
        0.0,
        0.0,
        0.0,
        0.0,
        0.0,
        1.0
      ],
      "name": "0ce5ae159ffb44beb21ab1cb724f8fc1.fbx"
    },
    {
      "children": [
        3
      ],
      "name": "RootNode"
    },
    {
      "children": [
        4,
        5
      ],
      "matrix": [
        1.0,
        0.0,
        0.0,
        0.0,
        0.0,
        1.0,
        0.0,
        0.0,
        0.0,
        0.0,
        1.0,
        0.0,
        0.0,
        1.0,
        0.0,
        1.0
      ],
      "name": "pPlatonic1"
    },
    {
      "mesh": 0,
      "name": "pPlatonic1_lambert1_0"
    },
    {
      "mesh": 1,
      "name": "pPlatonic1_lambert3_0"
    }
  ],
  "scene": 0,
  "scenes": [
    {
      "name": "Sketchfab_Scene",
      "nodes": [
        0
      ]
    }
  ]
}
